<svg xmlns="http://www.w3.org/2000/svg" viewBox="0 0 48 48" width="96" height="96" role="img" aria-label="Nook">
  <title>Nook</title>
  <!-- One colour: the back pebble has a sliver cut where it meets the front
       one, and the eyes are holes, so it still reads as two without colour.
       Paths come from tools/android-icons.py. -->
  <g fill="currentColor" fill-rule="evenodd">
    <path d="M25.37,10.83 A11,13 0 1 1 31.5,34.99 A14.8,16.8 0 0 0 25.37,10.83 Z"/>
    <path d="M6,26 a13,15 0 1 0 26,0 a13,15 0 1 0 -26,0 Z M14,25 a2,2 0 1 0 4,0 a2,2 0 1 0 -4,0 Z M20,25 a2,2 0 1 0 4,0 a2,2 0 1 0 -4,0 Z"/>
  </g>
</svg>
